<svg width="76" height="76" viewBox="0 0 76 76" fill="none" xmlns="http://www.w3.org/2000/svg">
<g id="Frame 4652">
<g id="Group">
<path id="Vector" d="M57 57C67.4934 46.5066 67.4934 29.4934 57 19C46.5066 8.50659 29.4934 8.50659 19 19C8.50659 29.4934 8.50659 46.5066 19 57C29.4934 67.4934 46.5066 67.4934 57 57Z" fill="#F7D8BA"/>
<g id="Clip path group">
<mask id="mask0_109_919" style="mask-type:luminance" maskUnits="userSpaceOnUse" x="11" y="11" width="54" height="54">
<g id="SVGID_00000170254400382276587550000015870042814432772282_">
<path id="Vector_2" d="M57 57C67.4934 46.5066 67.4934 29.4934 57 19C46.5066 8.50659 29.4934 8.50659 19 19C8.50659 29.4934 8.50659 46.5066 19 57C29.4934 67.4934 46.5066 67.4934 57 57Z" fill="white"/>
</g>
</mask>
<g mask="url(#mask0_109_919)">
<g id="Group_2">
<path id="Vector_3" d="M63.9867 66.298H12.1423C14.5328 55.567 20.9486 53.4237 20.9486 53.4237L33.3145 47.6399L38.0004 47.5972H38.1287L42.8194 47.6399L55.1852 53.4237C55.1852 53.4237 61.5963 55.567 63.9867 66.298Z" fill="#4570B4"/>
<g id="Group_3">
<path id="Vector_4" d="M32.8277 31.3248C32.8733 32.9411 31.6001 34.2889 29.9838 34.3345C28.3675 34.3801 27.0197 33.107 26.9741 31.4907C26.9285 29.8743 28.2016 28.5265 29.8179 28.4809C31.4343 28.4353 32.7816 29.7085 32.8277 31.3248Z" fill="#C67D69"/>
<path id="Vector_5" d="M28.2383 30.9965C28.2383 30.9965 29.4026 30.4295 30.5123 32.4522" stroke="#A8523F" stroke-width="1.32874" stroke-miterlimit="10" stroke-linecap="round" stroke-linejoin="round"/>
</g>
<g id="Group_4">
<path id="Vector_6" d="M46.4458 34.3362C48.0629 34.3362 49.3738 33.0253 49.3738 31.4082C49.3738 29.7911 48.0629 28.4802 46.4458 28.4802C44.8287 28.4802 43.5178 29.7911 43.5178 31.4082C43.5178 33.0253 44.8287 34.3362 46.4458 34.3362Z" fill="#C67D69"/>
<path id="Vector_7" d="M48.0958 30.9495C48.0958 30.9495 46.9157 30.4153 45.864 32.4689" stroke="#A8523F" stroke-width="1.32874" stroke-miterlimit="10" stroke-linecap="round" stroke-linejoin="round"/>
</g>
<g id="Group_5">
<path id="Vector_8" d="M41.9296 38.1547C41.9296 38.1547 40.2786 39.3195 38.7745 39.6071C37.2703 39.8946 35.8075 39.0215 35.789 39.0106C35.7705 39.0002 34.0325 38.0002 34.0325 38.0002L33.313 47.6377L33.5078 47.7984C36.0585 49.9023 39.7354 49.9275 42.3146 47.8582L42.6919 47.5555L41.9296 38.1547Z" fill="#C67D69"/>
</g>
<path id="Vector_9" d="M33.313 36.9871C33.313 36.9871 34.9535 42.3573 38.7289 42.2979C41.8322 42.249 42.3327 36.9871 42.3327 36.9871H33.313Z" fill="#1E0B02"/>
<path id="Vector_10" d="M46.0794 26.3106C46.0961 29.6202 45.6379 32.4788 45.176 34.5081C44.724 36.4951 43.4309 37.8885 41.5988 39.0144L41.2652 39.2192C39.3272 40.4102 36.8155 40.4506 34.8356 39.3223C32.8391 38.1846 31.4376 36.6781 30.9976 34.5504C30.1977 30.681 30.0908 26.3914 30.0908 26.3914C30.0908 26.3914 28.9668 17.4388 37.5897 17.5576C46.2135 17.6764 46.0794 26.3106 46.0794 26.3106Z" fill="#C67D69"/>
<g id="Group_6">
<path id="Vector_11" d="M34.3654 29.6338C34.7507 29.6338 35.063 29.3215 35.063 28.9362C35.063 28.5509 34.7507 28.2385 34.3654 28.2385C33.9801 28.2385 33.6677 28.5509 33.6677 28.9362C33.6677 29.3215 33.9801 29.6338 34.3654 29.6338Z" fill="#1E0B02"/>
<path id="Vector_12" d="M41.2123 29.6338C41.5976 29.6338 41.91 29.3215 41.91 28.9362C41.91 28.5509 41.5976 28.2385 41.2123 28.2385C40.827 28.2385 40.5146 28.5509 40.5146 28.9362C40.5146 29.3215 40.827 29.6338 41.2123 29.6338Z" fill="#1E0B02"/>
<path id="Vector_13" d="M37.1558 29.9556V31.8798H38.3995" stroke="#A8523F" stroke-width="1.32874" stroke-miterlimit="10" stroke-linecap="round" stroke-linejoin="round"/>
<path id="Vector_14" d="M31.7659 25.9875L36.3254 25.5764C36.3254 25.5764 35.9171 24.3949 34.0737 24.5864C32.1874 24.7827 31.7659 25.9875 31.7659 25.9875Z" fill="black"/>
<path id="Vector_15" d="M43.518 25.9875L38.959 25.5764C38.959 25.5764 39.3672 24.3949 41.2107 24.5864C43.0965 24.7827 43.518 25.9875 43.518 25.9875Z" fill="black"/>
<path id="Vector_16" d="M35.5955 33.4739H40.0932C40.0932 33.4739 39.8817 34.8516 37.7778 34.8516C35.6739 34.8516 35.5955 33.4739 35.5955 33.4739Z" fill="white"/>
</g>
<g id="Group_7">
<path id="Vector_17" d="M30.3848 30.6281C30.3848 30.6281 31.6613 20.9455 31.0368 19.3501C31.0368 19.3501 26.694 22.9425 30.3848 30.6281Z" fill="#1E0B02"/>
<path id="Vector_18" d="M45.7537 30.5501C45.7537 30.5501 44.317 21.3037 44.7153 18.6433C44.7153 18.6433 48.9093 22.3578 45.7537 30.5501Z" fill="#1E0B02"/>
</g>
<path id="Vector_19" d="M44.4155 16.5999L40.4396 15.8167L40.0893 14.9209L37.9911 15.3344L35.8929 14.9209L35.5427 15.8167L31.5672 16.5999L31.0369 19.3701L31.1676 22.5638C31.1676 22.5638 31.7968 18.9415 33.9877 19.6629C34.5042 19.833 35.123 20.1148 35.8459 20.3049C36.5212 20.4965 37.1651 20.5834 37.7725 20.5972C37.8443 20.5996 37.9189 20.5972 37.9916 20.5977C38.0648 20.5972 38.1389 20.5996 38.2107 20.5972C38.818 20.5839 39.4615 20.4965 40.1368 20.3049C40.8597 20.1148 41.4918 19.891 41.9951 19.6629C44.0258 18.7423 44.7738 22.3989 44.7738 22.3989L44.9458 19.3701L44.4155 16.5999Z" fill="#1E0B02"/>
<path id="Vector_20" d="M33.3129 47.6381L30.5503 48.9075C30.5503 48.9075 30.5204 53.5392 38.0278 53.2988C45.7253 53.0526 45.6797 48.9774 45.6797 48.9774L42.6918 47.5554L33.3129 47.6381Z" fill="#C67D69"/>
<path id="Vector_21" d="M30.2089 21.8091C30.2089 22.7728 29.4276 23.5546 28.4633 23.5546C27.4996 23.5546 26.7178 22.7733 26.7178 21.8091C26.7178 20.8453 27.4991 20.0635 28.4633 20.0635C29.4271 20.064 30.2089 20.8453 30.2089 21.8091Z" fill="#1E0B02"/>
<path id="Vector_22" d="M30.2407 24.842C30.2407 25.6533 29.583 26.3105 28.7722 26.3105C27.961 26.3105 27.3037 25.6528 27.3037 24.842C27.3037 24.0308 27.9614 23.3735 28.7722 23.3735C29.583 23.3735 30.2407 24.0308 30.2407 24.842Z" fill="#1E0B02"/>
<path id="Vector_23" d="M48.7256 24.5969C48.7256 25.4082 48.0678 26.0659 47.2571 26.0659C46.4458 26.0659 45.7881 25.4082 45.7881 24.5969C45.7881 23.7857 46.4458 23.1284 47.2571 23.1284C48.0678 23.1284 48.7256 23.7857 48.7256 24.5969Z" fill="#1E0B02"/>
<path id="Vector_24" d="M31.5075 19.3498C31.5075 20.3136 30.7262 21.0954 29.7619 21.0954C28.7977 21.0954 28.0164 20.3141 28.0164 19.3498C28.0164 18.386 28.7977 17.6042 29.7619 17.6042C30.7257 17.6042 31.5075 18.386 31.5075 19.3498Z" fill="#1E0B02"/>
<path id="Vector_25" d="M33.2526 17.0329C33.2526 17.9967 32.4713 18.7785 31.507 18.7785C30.5428 18.7785 29.7615 17.9972 29.7615 17.0329C29.7615 16.0691 30.5428 15.2874 31.507 15.2874C32.4713 15.2874 33.2526 16.0691 33.2526 17.0329Z" fill="#1E0B02"/>
<path id="Vector_26" d="M35.7907 15.6836C35.7907 16.6474 35.0094 17.4291 34.0451 17.4291C33.0809 17.4291 32.2996 16.6478 32.2996 15.6836C32.2996 14.7198 33.0809 13.938 34.0451 13.938C35.0094 13.938 35.7907 14.7198 35.7907 15.6836Z" fill="#1E0B02"/>
<path id="Vector_27" d="M38.3625 15.0981C38.3625 16.0619 37.5812 16.8437 36.6169 16.8437C35.6531 16.8437 34.8713 16.0624 34.8713 15.0981C34.8713 14.1343 35.6526 13.3525 36.6169 13.3525C37.5807 13.3525 38.3625 14.1338 38.3625 15.0981Z" fill="#1E0B02"/>
<path id="Vector_28" d="M46.0039 21.8091C46.0039 22.7728 46.7852 23.5546 47.7495 23.5546C48.7133 23.5546 49.495 22.7733 49.495 21.8091C49.495 20.8453 48.7138 20.0635 47.7495 20.0635C46.7857 20.064 46.0039 20.8453 46.0039 21.8091Z" fill="#1E0B02"/>
<path id="Vector_29" d="M44.7056 19.3498C44.7056 20.3136 45.4869 21.0954 46.4511 21.0954C47.4154 21.0954 48.1967 20.3141 48.1967 19.3498C48.1967 18.386 47.4154 17.6042 46.4511 17.6042C45.4873 17.6042 44.7056 18.386 44.7056 19.3498Z" fill="#1E0B02"/>
<path id="Vector_30" d="M42.9604 17.0329C42.9604 17.9967 43.7418 18.7785 44.706 18.7785C45.6698 18.7785 46.4516 17.9972 46.4516 17.0329C46.4516 16.0691 45.6703 15.2874 44.706 15.2874C43.7418 15.2874 42.9604 16.0691 42.9604 17.0329Z" fill="#1E0B02"/>
<path id="Vector_31" d="M40.4219 15.6836C40.4219 16.6474 41.2032 17.4291 42.1674 17.4291C43.1312 17.4291 43.913 16.6478 43.913 15.6836C43.913 14.7198 43.1317 13.938 42.1674 13.938C41.2032 13.938 40.4219 14.7198 40.4219 15.6836Z" fill="#1E0B02"/>
<path id="Vector_32" d="M37.8508 15.0981C37.8508 16.0619 38.6321 16.8437 39.5964 16.8437C40.5602 16.8437 41.342 16.0624 41.342 15.0981C41.342 14.1343 40.5607 13.3525 39.5964 13.3525C38.6326 13.3525 37.8508 14.1338 37.8508 15.0981Z" fill="#1E0B02"/>
</g>
</g>
</g>
</g>
</g>
</svg>
