<svg width="28" height="28" viewBox="0 0 28 28" fill="none" xmlns="http://www.w3.org/2000/svg">
<path d="M25.925 27.5C22.8 27.5 19.7125 26.8188 16.6625 25.4563C13.6125 24.0938 10.8375 22.1625 8.3375 19.6625C5.8375 17.1625 3.90625 14.3875 2.54375 11.3375C1.18125 8.2875 0.5 5.2 0.5 2.075C0.5 1.625 0.65 1.25 0.95 0.95C1.25 0.65 1.625 0.5 2.075 0.5H8.15C8.5 0.5 8.8125 0.61875 9.0875 0.85625C9.3625 1.09375 9.525 1.375 9.575 1.7L10.55 6.95C10.6 7.35 10.5875 7.6875 10.5125 7.9625C10.4375 8.2375 10.3 8.475 10.1 8.675L6.4625 12.35C6.9625 13.275 7.55625 14.1688 8.24375 15.0312C8.93125 15.8937 9.6875 16.725 10.5125 17.525C11.2875 18.3 12.1 19.0188 12.95 19.6813C13.8 20.3438 14.7 20.95 15.65 21.5L19.175 17.975C19.4 17.75 19.6938 17.5813 20.0563 17.4688C20.4188 17.3562 20.775 17.325 21.125 17.375L26.3 18.425C26.65 18.525 26.9375 18.7063 27.1625 18.9688C27.3875 19.2312 27.5 19.525 27.5 19.85V25.925C27.5 26.375 27.35 26.75 27.05 27.05C26.75 27.35 26.375 27.5 25.925 27.5ZM5.0375 9.5L7.5125 7.025L6.875 3.5H3.5375C3.6625 4.525 3.8375 5.5375 4.0625 6.5375C4.2875 7.5375 4.6125 8.525 5.0375 9.5ZM18.4625 22.925C19.4375 23.35 20.4313 23.6875 21.4438 23.9375C22.4563 24.1875 23.475 24.35 24.5 24.425V21.125L20.975 20.4125L18.4625 22.925Z" fill="#1C1B1F"/>
</svg>
