<svg width="28" height="28" viewBox="0 0 28 28" fill="none" xmlns="http://www.w3.org/2000/svg">
<path d="M3.5 24.5H5.6375L20.3 9.8375L18.1625 7.7L3.5 22.3625V24.5ZM0.5 27.5V21.125L20.3 1.3625C20.6 1.0875 20.9312 0.875 21.2938 0.725C21.6562 0.575 22.0375 0.5 22.4375 0.5C22.8375 0.5 23.225 0.575 23.6 0.725C23.975 0.875 24.3 1.1 24.575 1.4L26.6375 3.5C26.9375 3.775 27.1563 4.1 27.2938 4.475C27.4313 4.85 27.5 5.225 27.5 5.6C27.5 6 27.4313 6.38125 27.2938 6.74375C27.1563 7.10625 26.9375 7.4375 26.6375 7.7375L6.875 27.5H0.5ZM19.2125 8.7875L18.1625 7.7L20.3 9.8375L19.2125 8.7875Z" fill="white"/>
</svg>
