<svg width="24" height="24" viewBox="0 0 24 24" fill="none" xmlns="http://www.w3.org/2000/svg">
<path d="M24 0V9H21V5.1375L15.0375 11.0625C15.5125 11.7625 15.875 12.5063 16.125 13.2938C16.375 14.0813 16.5 14.9 16.5 15.75C16.5 18.05 15.7 20 14.1 21.6C12.5 23.2 10.55 24 8.25 24C5.95 24 4 23.2 2.4 21.6C0.8 20 0 18.05 0 15.75C0 13.45 0.8 11.5 2.4 9.9C4 8.3 5.95 7.5 8.25 7.5C9.075 7.5 9.8875 7.61875 10.6875 7.85625C11.4875 8.09375 12.225 8.4625 12.9 8.9625L18.8625 3H15V0H24ZM8.25 10.5C6.8 10.5 5.5625 11.0125 4.5375 12.0375C3.5125 13.0625 3 14.3 3 15.75C3 17.2 3.5125 18.4375 4.5375 19.4625C5.5625 20.4875 6.8 21 8.25 21C9.7 21 10.9375 20.4875 11.9625 19.4625C12.9875 18.4375 13.5 17.2 13.5 15.75C13.5 14.3 12.9875 13.0625 11.9625 12.0375C10.9375 11.0125 9.7 10.5 8.25 10.5Z" fill="#1C1B1F"/>
</svg>
